<?xml version="1.0" encoding="utf-8"?>
<!-- Generator: Adobe Illustrator 25.2.1, SVG Export Plug-In . SVG Version: 6.00 Build 0)  -->
<svg version="1.1" id="Camada_1" xmlns="http://www.w3.org/2000/svg" xmlns:xlink="http://www.w3.org/1999/xlink" x="0px" y="0px"
	 viewBox="0 0 10143.2 2919.2" style="enable-background:new 0 0 10143.2 2919.2;" xml:space="preserve">
<style type="text/css">
	.st0{fill:#222223;}
	.st1{fill:#222223;stroke:#000000;stroke-width:0.75;stroke-miterlimit:10;}
	.st2{fill:url(#SVGID_1_);}
	.st3{fill:none;stroke:url(#SVGID_2_);stroke-width:18;stroke-linecap:round;stroke-linejoin:round;stroke-miterlimit:10;}
	.st4{fill:none;stroke:url(#SVGID_3_);stroke-width:18;stroke-linecap:round;stroke-linejoin:round;stroke-miterlimit:10;}
	.st5{fill:none;stroke:url(#SVGID_4_);stroke-width:18;stroke-linecap:round;stroke-linejoin:round;stroke-miterlimit:10;}
	.st6{fill:none;stroke:url(#SVGID_5_);stroke-width:18;stroke-linecap:round;stroke-linejoin:round;stroke-miterlimit:10;}
	.st7{fill:none;stroke:url(#SVGID_6_);stroke-width:18;stroke-linecap:round;stroke-linejoin:round;stroke-miterlimit:10;}
	.st8{fill:none;stroke:url(#SVGID_7_);stroke-width:18;stroke-linecap:round;stroke-linejoin:round;stroke-miterlimit:10;}
	.st9{fill:none;stroke:url(#SVGID_8_);stroke-width:18;stroke-linecap:round;stroke-linejoin:round;stroke-miterlimit:10;}
	.st10{fill:url(#SVGID_9_);}
	.st11{fill:url(#SVGID_10_);}
	.st12{fill:url(#SVGID_11_);}
	.st13{fill:url(#SVGID_12_);}
	.st14{fill:url(#SVGID_13_);}
	.st15{fill:url(#SVGID_14_);}
	.st16{fill:url(#SVGID_15_);}
	.st17{fill:none;stroke:url(#SVGID_16_);stroke-width:18;stroke-linecap:round;stroke-linejoin:round;stroke-miterlimit:10;}
	.st18{fill:none;stroke:url(#SVGID_17_);stroke-width:18;stroke-linecap:round;stroke-linejoin:round;stroke-miterlimit:10;}
	.st19{fill:none;stroke:url(#SVGID_18_);stroke-width:18;stroke-linecap:round;stroke-linejoin:round;stroke-miterlimit:10;}
	.st20{fill:none;stroke:url(#SVGID_19_);stroke-width:18;stroke-linecap:round;stroke-linejoin:round;stroke-miterlimit:10;}
	.st21{fill:none;stroke:url(#SVGID_20_);stroke-width:18;stroke-linecap:round;stroke-linejoin:round;stroke-miterlimit:10;}
	.st22{fill:none;stroke:url(#SVGID_21_);stroke-width:18;stroke-linecap:round;stroke-linejoin:round;stroke-miterlimit:10;}
	.st23{fill:none;stroke:url(#SVGID_22_);stroke-width:18;stroke-linecap:round;stroke-linejoin:round;stroke-miterlimit:10;}
	.st24{fill:none;stroke:url(#SVGID_23_);stroke-width:32;stroke-linecap:round;stroke-linejoin:round;stroke-miterlimit:10;}
	.st25{fill:none;stroke:url(#SVGID_24_);stroke-width:32;stroke-linecap:round;stroke-linejoin:round;stroke-miterlimit:10;}
	.st26{fill:url(#SVGID_25_);}
	.st27{fill:url(#SVGID_26_);}
	.st28{fill:url(#SVGID_27_);}
	.st29{fill:url(#SVGID_28_);}
	.st30{fill:url(#SVGID_29_);}
	.st31{fill:url(#SVGID_30_);}
</style>
<g>
	<g>
		<path class="st0" d="M4091,1222.9h643.5v181.6h-825.2V496.4h820.6V678H4091v181.6h403.5v181.6H4091V1222.9z"/>
		<path class="st0" d="M5807,495.2l4.6,909.4h-181.5l-553.2-632.7v632.7h-181.6V496.4h182.8l550.3,630l-3.1-629.7L5807,495.2z"/>
		<path class="st0" d="M6197.3,1222.9h643.5v181.6h-825.2V496.4h820.6V678h-638.9v181.6h403.5v181.6h-403.5V1222.9z"/>
		<path class="st0" d="M7706.3,1149.8l226.2,255.3h-243.1l-224.8-255.3h-281.4v255.3h-181.6V496.4h764.3l149.8,136.2v391.7
			l-148.3,125.5H7706.3z M7701.9,968.2l32.1-27.6V713.3l-38.3-35.3h-512.5v290.1H7701.9z"/>
		<path class="st0" d="M8856.5,496.4L9008,632.2v169.6h-184v-88.7l-38.3-35.1H8313l-39.8,35.2v482.2l33.7,27.6h485l32.1-27.5v-154.2
			h-275.1V859.6H9008v419.7l-148.4,125.2h-619.6l-148.4-125.4V632.5L8243,496.4H8856.5z"/>
		<path class="st0" d="M9806.7,495.2h229.3L9629.4,1024v380.6h-181.6v-377.5l-394.4-531.9h226.2l258.2,348.5L9806.7,495.2z"/>
	</g>
</g>
<g>
	<path class="st1" d="M4747.9,1557l158.7,142.9v177.9h-192.4v-92.9l-40.1-36.8h-495.3l-41.7,36.8v504.7l35.3,28.8h508.1l33.7-28.8
		v-97.7h192.4v186l-155.5,131.6h-649.4L3946.2,2378v-678.2l158.7-142.7H4747.9z"/>
	<path class="st1" d="M5882.2,1557l158.7,142.7V2378l-155.5,131.5H5236L5080.4,2378v-678.2l158.7-142.7H5882.2z M5849.9,1784.9
		l-41.7-36.8h-495.3l-40.1,36.8v504.7l33.7,28.8h508.1l35.3-28.8V1784.9z"/>
	<path class="st1" d="M6244.5,1557h800.8l157,142.7V2378l-155.3,131.5h-802.4V1557z M7011.2,1784.9l-40-36.8h-535.8v570.4h542.2
		l33.6-28.8V1784.9z"/>
	<path class="st1" d="M7598.6,2318.4h674.5v191h-865.5V1557h860.7v191h-669.7v189.7h423v191h-423V2318.4z"/>
</g>
<g>
	
		<radialGradient id="SVGID_1_" cx="7454.9321" cy="-336.5217" r="111.8471" gradientTransform="matrix(-0.7523 0.6588 0.6588 0.7523 8707.6865 -3129.208)" gradientUnits="userSpaceOnUse">
		<stop  offset="0.5567" style="stop-color:#01FEFF"/>
		<stop  offset="0.6964" style="stop-color:#01DAFF"/>
		<stop  offset="1" style="stop-color:#0280FE"/>
		<stop  offset="1" style="stop-color:#0262FE"/>
	</radialGradient>
	<circle class="st2" cx="2862.6" cy="1626.5" r="47.7"/>
	<g>
		<radialGradient id="SVGID_2_" cx="986.7581" cy="674.1037" r="123.1809" gradientUnits="userSpaceOnUse">
			<stop  offset="6.958763e-02" style="stop-color:#0280FE"/>
			<stop  offset="0.8807" style="stop-color:#01FEFF"/>
		</radialGradient>
		<line class="st3" x1="986.8" y1="839.1" x2="986.8" y2="509.1"/>
		<radialGradient id="SVGID_3_" cx="1393.0951" cy="2565.8901" r="123.7172" gradientUnits="userSpaceOnUse">
			<stop  offset="6.958763e-02" style="stop-color:#0280FE"/>
			<stop  offset="0.8807" style="stop-color:#01FEFF"/>
		</radialGradient>
		<line class="st4" x1="1534.5" y1="2646.2" x2="1251.7" y2="2485.6"/>
		<radialGradient id="SVGID_4_" cx="1231.6265" cy="365.3427" r="212.7477" gradientUnits="userSpaceOnUse">
			<stop  offset="6.958763e-02" style="stop-color:#0280FE"/>
			<stop  offset="0.8807" style="stop-color:#01FEFF"/>
		</radialGradient>
		<line class="st5" x1="1231.6" y1="73.6" x2="1231.6" y2="657.1"/>
		<radialGradient id="SVGID_5_" cx="868.0723" cy="775.4567" r="266.4423" gradientUnits="userSpaceOnUse">
			<stop  offset="6.958763e-02" style="stop-color:#0280FE"/>
			<stop  offset="0.8807" style="stop-color:#01FEFF"/>
		</radialGradient>
		<line class="st6" x1="554.3" y1="590" x2="1181.9" y2="960.9"/>
		<radialGradient id="SVGID_6_" cx="529.7861" cy="1265.0682" r="243.2633" gradientUnits="userSpaceOnUse">
			<stop  offset="6.958763e-02" style="stop-color:#0280FE"/>
			<stop  offset="0.8807" style="stop-color:#01FEFF"/>
		</radialGradient>
		<polyline class="st7" points="362.1,978.9 697.4,1162.6 697.4,1551.3 		"/>
		<radialGradient id="SVGID_7_" cx="756.0282" cy="1741.3203" r="277.7502" gradientUnits="userSpaceOnUse">
			<stop  offset="6.958763e-02" style="stop-color:#0280FE"/>
			<stop  offset="0.8807" style="stop-color:#01FEFF"/>
		</radialGradient>
		<polyline class="st8" points="559.5,2067.1 952.5,1794.4 952.5,1415.6 		"/>
		<radialGradient id="SVGID_8_" cx="905.7114" cy="2122.9341" r="336.1878" gradientUnits="userSpaceOnUse">
			<stop  offset="6.958763e-02" style="stop-color:#0280FE"/>
			<stop  offset="0.8807" style="stop-color:#01FEFF"/>
		</radialGradient>
		<polyline class="st9" points="1231.6,1794.5 1231.6,2066.5 579.8,2451.4 		"/>
	</g>
	
		<radialGradient id="SVGID_9_" cx="9404.8164" cy="-1292.3368" r="106.4364" gradientTransform="matrix(-0.7843 -0.6204 0.6204 -0.7843 9145.5156 6263.5112)" gradientUnits="userSpaceOnUse">
		<stop  offset="0.5567" style="stop-color:#01FEFF"/>
		<stop  offset="0.6964" style="stop-color:#01DAFF"/>
		<stop  offset="1" style="stop-color:#0280FE"/>
		<stop  offset="1" style="stop-color:#0262FE"/>
	</radialGradient>
	<circle class="st10" cx="949" cy="1350.1" r="45.4"/>
	<radialGradient id="SVGID_10_" cx="1090.825" cy="884.0297" r="125.0495" gradientUnits="userSpaceOnUse">
		<stop  offset="0.5567" style="stop-color:#01FEFF"/>
		<stop  offset="0.6964" style="stop-color:#01DAFF"/>
		<stop  offset="1" style="stop-color:#0280FE"/>
		<stop  offset="1" style="stop-color:#0262FE"/>
	</radialGradient>
	<circle class="st11" cx="1175.3" cy="955.5" r="53.3"/>
	
		<radialGradient id="SVGID_11_" cx="9692.6797" cy="-995.4544" r="139.8361" gradientTransform="matrix(-0.729 -0.6845 0.6845 -0.729 8748.5039 6506.0366)" gradientUnits="userSpaceOnUse">
		<stop  offset="0.5567" style="stop-color:#01FEFF"/>
		<stop  offset="0.6964" style="stop-color:#01DAFF"/>
		<stop  offset="1" style="stop-color:#0280FE"/>
		<stop  offset="1" style="stop-color:#0262FE"/>
	</radialGradient>
	<circle class="st12" cx="986.6" cy="474.6" r="59.7"/>
	
		<radialGradient id="SVGID_12_" cx="1219.338" cy="2635.1414" r="125.0725" gradientTransform="matrix(0.8973 0.4414 -0.4414 0.8973 1253.0642 -2347.4565)" gradientUnits="userSpaceOnUse">
		<stop  offset="0.5567" style="stop-color:#01FEFF"/>
		<stop  offset="0.6964" style="stop-color:#01DAFF"/>
		<stop  offset="1" style="stop-color:#0280FE"/>
		<stop  offset="1" style="stop-color:#0262FE"/>
	</radialGradient>
	<circle class="st13" cx="1228.1" cy="656.7" r="53.4"/>
	
		<radialGradient id="SVGID_13_" cx="772.3828" cy="2740.634" r="125.0495" gradientTransform="matrix(0.9655 0.2602 -0.2602 0.9655 596.8718 -1417.718)" gradientUnits="userSpaceOnUse">
		<stop  offset="0.5567" style="stop-color:#01FEFF"/>
		<stop  offset="0.6964" style="stop-color:#01DAFF"/>
		<stop  offset="1" style="stop-color:#0280FE"/>
		<stop  offset="1" style="stop-color:#0262FE"/>
	</radialGradient>
	<circle class="st14" cx="692.3" cy="1520.4" r="53.3"/>
	
		<radialGradient id="SVGID_14_" cx="9907.8027" cy="2922.5491" r="111.8471" gradientTransform="matrix(-0.866 0.5 -0.5 -0.866 11371.5469 75.9157)" gradientUnits="userSpaceOnUse">
		<stop  offset="0.5567" style="stop-color:#01FEFF"/>
		<stop  offset="0.6964" style="stop-color:#01DAFF"/>
		<stop  offset="1" style="stop-color:#0280FE"/>
		<stop  offset="1" style="stop-color:#0262FE"/>
	</radialGradient>
	<circle class="st15" cx="1232.5" cy="2481.2" r="47.7"/>
	
		<radialGradient id="SVGID_15_" cx="7330.5615" cy="-2605.667" r="111.8471" gradientTransform="matrix(-0.4322 -0.9018 0.9018 -0.4322 6725.4341 7331.4849)" gradientUnits="userSpaceOnUse">
		<stop  offset="0.5567" style="stop-color:#01FEFF"/>
		<stop  offset="0.6964" style="stop-color:#01DAFF"/>
		<stop  offset="1" style="stop-color:#0280FE"/>
		<stop  offset="1" style="stop-color:#0262FE"/>
	</radialGradient>
	<circle class="st16" cx="1232.5" cy="1751.3" r="47.7"/>
	<g>
		
			<radialGradient id="SVGID_16_" cx="8034.4019" cy="1369.5856" r="218.5018" gradientTransform="matrix(-1 0 0 1 11045.7891 0)" gradientUnits="userSpaceOnUse">
			<stop  offset="6.958763e-02" style="stop-color:#0280FE"/>
			<stop  offset="0.8807" style="stop-color:#01FEFF"/>
		</radialGradient>
		<polyline class="st17" points="3161.3,1113.6 2861.4,1277.9 2861.4,1625.6 		"/>
		
			<radialGradient id="SVGID_17_" cx="8552.8535" cy="903.5394" r="110.8832" gradientTransform="matrix(-1 0 0 1 11045.7891 0)" gradientUnits="userSpaceOnUse">
			<stop  offset="6.958763e-02" style="stop-color:#0280FE"/>
			<stop  offset="0.8807" style="stop-color:#01FEFF"/>
		</radialGradient>
		<line class="st18" x1="2492.9" y1="1051.1" x2="2492.9" y2="756"/>
		
			<radialGradient id="SVGID_18_" cx="9040.1738" cy="2565.8901" r="123.7172" gradientTransform="matrix(-1 0 0 1 11045.7891 0)" gradientUnits="userSpaceOnUse">
			<stop  offset="6.958763e-02" style="stop-color:#0280FE"/>
			<stop  offset="0.8807" style="stop-color:#01FEFF"/>
		</radialGradient>
		<line class="st19" x1="1864.2" y1="2646.2" x2="2147.1" y2="2485.6"/>
		
			<radialGradient id="SVGID_19_" cx="8878.7051" cy="365.3427" r="212.7477" gradientTransform="matrix(-1 0 0 1 11045.7891 0)" gradientUnits="userSpaceOnUse">
			<stop  offset="6.958763e-02" style="stop-color:#0280FE"/>
			<stop  offset="0.8807" style="stop-color:#01FEFF"/>
		</radialGradient>
		<line class="st20" x1="2167.1" y1="73.6" x2="2167.1" y2="657.1"/>
		
			<radialGradient id="SVGID_20_" cx="8446.6982" cy="994.1918" r="239.2342" gradientTransform="matrix(-1 0 0 1 11045.7891 0)" gradientUnits="userSpaceOnUse">
			<stop  offset="6.958763e-02" style="stop-color:#0280FE"/>
			<stop  offset="0.8807" style="stop-color:#01FEFF"/>
		</radialGradient>
		<line class="st21" x1="2879.7" y1="828.4" x2="2318.4" y2="1160"/>
		
			<radialGradient id="SVGID_21_" cx="8377.1074" cy="1794.4785" r="249.3501" gradientTransform="matrix(-1 0 0 1 11045.7891 0)" gradientUnits="userSpaceOnUse">
			<stop  offset="6.958763e-02" style="stop-color:#0280FE"/>
			<stop  offset="0.8807" style="stop-color:#01FEFF"/>
		</radialGradient>
		<polyline class="st22" points="2844.4,2085.8 2492.9,1841.9 2492.9,1503.1 		"/>
		
			<radialGradient id="SVGID_22_" cx="8552.79" cy="2122.9341" r="336.1878" gradientTransform="matrix(-1 0 0 1 11045.7891 0)" gradientUnits="userSpaceOnUse">
			<stop  offset="6.958763e-02" style="stop-color:#0280FE"/>
			<stop  offset="0.8807" style="stop-color:#01FEFF"/>
		</radialGradient>
		<polyline class="st23" points="2167.1,1794.5 2167.1,2066.5 2818.9,2451.4 		"/>
	</g>
	<g>
		<linearGradient id="SVGID_23_" gradientUnits="userSpaceOnUse" x1="203.7111" y1="1459.8413" x2="1607.8387" y2="1459.8413">
			<stop  offset="6.958763e-02" style="stop-color:#0280FE"/>
			<stop  offset="0.5567" style="stop-color:#01FEFF"/>
			<stop  offset="0.6714" style="stop-color:#01DAFF"/>
			<stop  offset="0.9251" style="stop-color:#027EFE"/>
			<stop  offset="1" style="stop-color:#0262FE"/>
		</linearGradient>
		<path class="st24" d="M1298.7,86.3c-131.2-37.8-278.5-9.1-378.7,222.1c0,0-552.8,59.5-374.2,535.8c0,0-484.8,119.1-272.1,620.8
			c0,0-195.6,535.8,280.7,620.8c0,0-156,502.1,351.5,531.7c0,0,81.7,264,339.6,225.9c200.5-29.6,346.5-206.1,346.5-408.7v-1952
			C1591.8,300.6,1473.8,136.8,1298.7,86.3z"/>
		
			<linearGradient id="SVGID_24_" gradientUnits="userSpaceOnUse" x1="7850.7896" y1="1459.8413" x2="9254.917" y2="1459.8413" gradientTransform="matrix(-1 0 0 1 11045.7891 0)">
			<stop  offset="6.958763e-02" style="stop-color:#0280FE"/>
			<stop  offset="0.5567" style="stop-color:#01FEFF"/>
			<stop  offset="0.6714" style="stop-color:#01DAFF"/>
			<stop  offset="0.9251" style="stop-color:#027EFE"/>
			<stop  offset="1" style="stop-color:#0262FE"/>
		</linearGradient>
		<path class="st25" d="M2100,86.3c131.2-37.8,278.5-9.1,378.7,222.1c0,0,552.8,59.5,374.2,535.8c0,0,484.8,119.1,272.1,620.8
			c0,0,195.6,535.8-280.7,620.8c0,0,156,502.1-351.5,531.7c0,0-81.7,264-339.6,225.9c-200.5-29.6-346.5-206.1-346.5-408.7v-1952
			C1806.9,300.6,1924.9,136.8,2100,86.3z"/>
	</g>
	
		<radialGradient id="SVGID_25_" cx="4843.9282" cy="4668.5669" r="111.8471" gradientTransform="matrix(0.1525 -0.9883 -0.9883 -0.1525 6414.2798 7055.4282)" gradientUnits="userSpaceOnUse">
		<stop  offset="0.5567" style="stop-color:#01FEFF"/>
		<stop  offset="0.6964" style="stop-color:#01DAFF"/>
		<stop  offset="1" style="stop-color:#0280FE"/>
		<stop  offset="1" style="stop-color:#0262FE"/>
	</radialGradient>
	<circle class="st26" cx="2487.2" cy="1472" r="47.7"/>
	
		<radialGradient id="SVGID_26_" cx="8645.9326" cy="1055.282" r="111.8471" gradientTransform="matrix(-1 0 0 1 11045.7891 0)" gradientUnits="userSpaceOnUse">
		<stop  offset="0.5567" style="stop-color:#01FEFF"/>
		<stop  offset="0.6964" style="stop-color:#01DAFF"/>
		<stop  offset="1" style="stop-color:#0280FE"/>
		<stop  offset="1" style="stop-color:#0262FE"/>
	</radialGradient>
	<circle class="st27" cx="2324.3" cy="1119.2" r="47.7"/>
	
		<radialGradient id="SVGID_27_" cx="5331.2363" cy="4766.2671" r="111.8471" gradientTransform="matrix(0.2235 -0.9747 -0.9747 -0.2235 5994.4365 7067.1367)" gradientUnits="userSpaceOnUse">
		<stop  offset="0.5567" style="stop-color:#01FEFF"/>
		<stop  offset="0.6964" style="stop-color:#01DAFF"/>
		<stop  offset="1" style="stop-color:#0280FE"/>
		<stop  offset="1" style="stop-color:#0262FE"/>
	</radialGradient>
	<circle class="st28" cx="2494.7" cy="717.7" r="47.7"/>
	
		<radialGradient id="SVGID_28_" cx="7141.2397" cy="-1667.1835" r="125.0725" gradientTransform="matrix(-0.7071 0.7071 0.7071 0.7071 8404.6436 -3338.0872)" gradientUnits="userSpaceOnUse">
		<stop  offset="0.5567" style="stop-color:#01FEFF"/>
		<stop  offset="0.6964" style="stop-color:#01DAFF"/>
		<stop  offset="1" style="stop-color:#0280FE"/>
		<stop  offset="1" style="stop-color:#0262FE"/>
	</radialGradient>
	<circle class="st29" cx="2167" cy="642.9" r="53.4"/>
	
		<radialGradient id="SVGID_29_" cx="1687.0234" cy="2276.2163" r="111.8471" gradientTransform="matrix(0.8956 -0.4448 -0.4448 -0.8956 1602.1616 5351.9619)" gradientUnits="userSpaceOnUse">
		<stop  offset="0.5567" style="stop-color:#01FEFF"/>
		<stop  offset="0.6964" style="stop-color:#01DAFF"/>
		<stop  offset="1" style="stop-color:#0280FE"/>
		<stop  offset="1" style="stop-color:#0262FE"/>
	</radialGradient>
	<circle class="st30" cx="2140" cy="2472.1" r="47.7"/>
	
		<radialGradient id="SVGID_30_" cx="4687.291" cy="4970.3438" r="111.8471" gradientTransform="matrix(0.1134 -0.9936 -0.9936 -0.1134 6627.939 7039.1201)" gradientUnits="userSpaceOnUse">
		<stop  offset="0.5567" style="stop-color:#01FEFF"/>
		<stop  offset="0.6964" style="stop-color:#01DAFF"/>
		<stop  offset="1" style="stop-color:#0280FE"/>
		<stop  offset="1" style="stop-color:#0262FE"/>
	</radialGradient>
	<circle class="st31" cx="2166.2" cy="1736.2" r="47.7"/>
</g>
</svg>
